# Blender v2.72 (sub 0) OBJ File: ''
# www.blender.org
mtllib moster01_head_invert.mtl
o moster01_milkshape.ms3d.mo.001_moster01_milkshape.ms3d.m.029
v -0.370547 1.158400 -0.078896
v -0.290448 1.113141 -0.333689
v -0.275916 0.947636 -0.252702
v -0.301580 1.396205 -0.093798
v -0.230768 1.292633 -0.365724
v -0.002939 1.327566 -0.418752
v -0.325573 0.835238 -0.024614
v -0.217495 0.916006 0.148941
v -0.280766 1.173938 0.155384
v -0.002938 1.411999 0.128025
v -0.002939 1.478210 -0.100686
v -0.073111 0.927017 -0.340319
v -0.184344 1.038943 -0.357805
v -0.002938 0.944014 -0.359427
v -0.002938 0.884525 0.184783
v -0.112894 0.732525 -0.059268
v -0.002937 0.702086 -0.158348
v -0.224651 0.738778 -0.229294
v -0.002938 0.672514 -0.280317
v -0.002938 1.091273 -0.429300
v -0.002938 1.184180 0.231154
v -0.198168 1.366257 0.097684
v -0.002938 0.836011 -0.380509
v -0.283990 0.834699 -0.281361
v -0.196393 0.837565 -0.292004
v -0.002938 0.714105 -0.344261
v -0.187629 0.760466 -0.313539
v 0.284545 1.113142 -0.333689
v 0.364644 1.158401 -0.078896
v 0.270032 0.947637 -0.252702
v 0.295703 1.396206 -0.093798
v 0.224883 1.292633 -0.365725
v 0.319698 0.835239 -0.024615
v 0.274864 1.173939 0.155384
v 0.192273 1.366258 0.097684
v 0.178450 1.038944 -0.357806
v -0.002938 0.763294 0.006854
v 0.107019 0.732526 -0.059268
v 0.218767 0.738779 -0.229295
v 0.211602 0.916007 0.148941
v 0.067236 0.927017 -0.340319
v 0.278106 0.834700 -0.281362
v 0.190518 0.837566 -0.292005
v 0.181754 0.760466 -0.313539
vt 0.718300 0.426300
vt 0.617100 0.416300
vt 0.632700 0.318700
vt 0.718500 0.538700
vt 0.610200 0.514200
vt 0.535600 0.596600
vt 0.742000 0.243100
vt 0.836600 0.293500
vt 0.812500 0.440000
vt 0.849300 0.641800
vt 0.708700 0.692200
vt 0.519100 0.312200
vt 0.572400 0.384000
vt 0.480700 0.328300
vt 0.952800 0.258100
vt 0.779000 0.072200
vt 0.624900 0.009800
vt 0.623000 0.185500
vt 0.480700 0.066700
vt 0.480700 0.444300
vt 0.945100 0.481500
vt 0.796700 0.551000
vt 0.480700 0.246200
vt 0.619600 0.253700
vt 0.584200 0.255100
vt 0.480700 0.146200
vt 0.578700 0.204600
vt 0.344300 0.416300
vt 0.243100 0.426300
vt 0.328800 0.318700
vt 0.242900 0.538700
vt 0.425800 0.596600
vt 0.351300 0.514200
vt 0.219400 0.243100
vt 0.148900 0.440000
vt 0.164800 0.551000
vt 0.112200 0.641800
vt 0.389000 0.384000
vt 0.008700 0.258100
vt 0.009200 0.029000
vt 0.182400 0.072200
vt 0.336500 0.009800
vt 0.338400 0.185500
vt 0.016300 0.481500
vt 0.124900 0.293500
vt 0.442400 0.312200
vt 0.341800 0.253700
vt 0.377200 0.255100
vt 0.382700 0.204600
vt 0.252800 0.692200
vt 0.952300 0.029000
vn -0.997200 0.073900 0.008500
vn -0.735700 -0.084800 -0.672000
vn -0.833700 -0.129000 -0.536800
vn -0.700600 0.713200 -0.022100
vn -0.528800 0.425500 -0.734300
vn 0.000000 0.538800 -0.842400
vn -0.798200 -0.546500 0.253400
vn -0.448200 -0.432100 0.782600
vn -0.660100 0.141100 0.737800
vn 0.000000 0.759500 0.650400
vn 0.000000 0.996700 -0.080400
vn -0.263900 -0.123600 -0.956600
vn -0.354900 -0.285000 -0.890400
vn 0.000000 -0.151900 -0.988400
vn 0.000000 -0.527700 0.849400
vn -0.377000 -0.914800 0.144600
vn 0.000000 -0.981300 0.192500
vn -0.523000 -0.848500 -0.080800
vn 0.000000 -0.982500 -0.186200
vn 0.000000 -0.171700 -0.985100
vn 0.000000 0.145700 0.989300
vn -0.436200 0.662300 0.609100
vn 0.000000 -0.072900 -0.997300
vn -0.732000 -0.117200 -0.671100
vn -0.262600 0.059300 -0.963100
vn 0.000000 -0.571200 -0.820800
vn -0.366100 -0.383000 -0.848100
vn 0.735600 -0.084800 -0.672000
vn 0.997200 0.073900 0.008500
vn 0.833800 -0.129000 -0.536800
vn 0.700600 0.713100 -0.022100
vn 0.528800 0.425500 -0.734300
vn 0.798200 -0.546500 0.253400
vn 0.660100 0.141100 0.737800
vn 0.436200 0.662300 0.609200
vn 0.354900 -0.285000 -0.890400
vn 0.000000 -0.826400 0.563100
vn 0.377000 -0.914800 0.144700
vn 0.523000 -0.848500 -0.080800
vn 0.448200 -0.432100 0.782600
vn 0.263900 -0.123600 -0.956600
vn 0.732000 -0.117200 -0.671200
vn 0.262600 0.059300 -0.963100
vn 0.366100 -0.383100 -0.848000
usemtl monster_mat
s 1
f 1/1/1 2/2/2 3/3/3
f 4/4/4 5/5/5 2/2/2
f 4/4/4 6/6/6 5/5/5
f 7/7/7 8/8/8 9/9/9
f 4/4/4 1/1/1 9/9/9
f 10/10/10 11/11/11 4/4/4
f 12/12/12 13/13/13 14/14/14
f 15/15/15 8/8/8 16/16/16
f 17/17/17 16/16/16 7/7/7
f 17/17/17 18/18/18 19/19/19
f 2/2/2 6/6/6 20/20/20
f 21/21/21 9/9/9 8/8/8
f 21/21/21 10/10/10 22/22/22
f 12/12/12 14/14/14 23/23/23
f 7/7/7 16/16/16 8/8/8
f 24/24/24 7/7/7 3/3/3
f 25/25/25 23/23/23 26/26/26
f 13/13/13 2/2/2 20/20/20
f 3/3/3 2/2/2 13/13/13
f 25/25/25 24/24/24 3/3/3
f 12/12/12 23/23/23 25/25/25
f 27/27/27 25/25/25 26/26/26
f 13/13/13 12/12/12 25/25/25
f 25/25/25 3/3/3 13/13/13
f 1/1/1 3/3/3 7/7/7
f 25/25/25 27/27/27 24/24/24
f 18/18/18 24/24/24 27/27/27
f 7/7/7 24/24/24 18/18/18
f 27/27/27 26/26/26 19/19/19
f 2/2/2 5/5/5 6/6/6
f 4/4/4 11/11/11 6/6/6
f 28/28/28 29/29/29 30/30/30
f 31/31/31 29/29/29 28/28/28
f 6/32/6 31/31/31 32/33/32
f 33/34/33 29/29/29 34/35/34
f 31/31/31 35/36/35 34/35/34
f 10/37/10 35/36/35 31/31/31
f 20/20/20 36/38/36 14/14/14
f 15/39/15 37/40/37 38/41/38
f 17/42/17 39/43/39 33/34/33
f 39/43/39 17/42/17 19/19/19
f 6/32/6 28/28/28 20/20/20
f 21/44/21 15/39/15 40/45/40
f 21/44/21 34/35/34 35/36/35
f 14/14/14 41/46/41 23/23/23
f 38/41/38 33/34/33 40/45/40
f 33/34/33 42/47/42 30/30/30
f 23/23/23 43/48/43 26/26/26
f 28/28/28 36/38/36 20/20/20
f 28/28/28 30/30/30 36/38/36
f 42/47/42 43/48/43 30/30/30
f 23/23/23 41/46/41 43/48/43
f 43/48/43 44/49/44 26/26/26
f 41/46/41 36/38/36 43/48/43
f 30/30/30 43/48/43 36/38/36
f 30/30/30 29/29/29 33/34/33
f 44/49/44 43/48/43 42/47/42
f 42/47/42 39/43/39 44/49/44
f 42/47/42 33/34/33 39/43/39
f 19/19/19 44/49/44 39/43/39
f 32/33/32 28/28/28 6/32/6
f 11/50/11 31/31/31 6/32/6
f 2/2/2 1/1/1 4/4/4
f 9/9/9 1/1/1 7/7/7
f 9/9/9 22/22/22 4/4/4
f 4/4/4 22/22/22 10/10/10
f 13/13/13 20/20/20 14/14/14
f 16/16/16 37/51/37 15/15/15
f 7/7/7 18/18/18 17/17/17
f 8/8/8 15/15/15 21/21/21
f 22/22/22 9/9/9 21/21/21
f 19/19/19 18/18/18 27/27/27
f 28/28/28 32/33/32 31/31/31
f 34/35/34 40/45/40 33/34/33
f 34/35/34 29/29/29 31/31/31
f 31/31/31 11/50/11 10/37/10
f 36/38/36 41/46/41 14/14/14
f 38/41/38 40/45/40 15/39/15
f 33/34/33 38/41/38 17/42/17
f 40/45/40 34/35/34 21/44/21
f 35/36/35 10/37/10 21/44/21
f 19/19/19 26/26/26 44/49/44
